<?xml version="1.0" encoding="utf-8"?>
<!-- Generator: Adobe Illustrator 16.0.4, SVG Export Plug-In . SVG Version: 6.00 Build 0)  -->
<!DOCTYPE svg PUBLIC "-//W3C//DTD SVG 1.1//EN" "http://www.w3.org/Graphics/SVG/1.1/DTD/svg11.dtd">
<svg version="1.1" id="Layer_1" xmlns="http://www.w3.org/2000/svg" xmlns:xlink="http://www.w3.org/1999/xlink" x="0px" y="0px"
	 width="141.73px" height="141.73px" viewBox="0 0 141.73 141.73" enable-background="new 0 0 141.73 141.73" xml:space="preserve">
<ellipse fill="#E9C34E" cx="67.896" cy="71.385" rx="67.876" ry="67.403"/>
<path fill="#BE922D" d="M73.756,3.373c-3.395,0-6.729,0.253-9.988,0.737c1.366-0.082,2.742-0.127,4.129-0.127
	c37.485,0,67.876,30.177,67.876,67.402c0,34.315-25.823,62.642-59.227,66.86c35.968-1.463,64.679-31.079,64.679-67.405
	C141.224,33.579,111.018,3.373,73.756,3.373z"/>
<ellipse fill="#BE922D" cx="67.896" cy="71.385" rx="62.357" ry="61.923"/>
<circle fill="#FFFFFF" cx="70.507" cy="71.819" r="58.298"/>
<path d="M100.849,52.451c0,17.37-14.239,31.453-31.797,31.453c-17.562,0-31.795-14.083-31.795-31.453s14.234-31.452,31.795-31.452
	C86.61,20.999,100.849,35.082,100.849,52.451z"/>
<path d="M100.223,80.819c-7.458,11.065-18.651,18.106-31.171,18.106c-12.517,0-23.711-7.041-31.171-18.106
	c-7.642,5.017-12.359,11.867-12.359,19.422c0,15.373,19.492,27.837,43.531,27.837c24.044,0,43.529-12.464,43.529-27.837
	C112.582,92.686,107.868,85.836,100.223,80.819z"/>
</svg>
