<?xml version="1.0" encoding="utf-8"?>
<!-- Generator: Adobe Illustrator 16.0.4, SVG Export Plug-In . SVG Version: 6.00 Build 0)  -->
<!DOCTYPE svg PUBLIC "-//W3C//DTD SVG 1.1//EN" "http://www.w3.org/Graphics/SVG/1.1/DTD/svg11.dtd">
<svg version="1.1" id="Layer_1" xmlns="http://www.w3.org/2000/svg" xmlns:xlink="http://www.w3.org/1999/xlink" x="0px" y="0px"
	 width="28.35px" height="28.35px" viewBox="0 0 28.35 28.35" enable-background="new 0 0 28.35 28.35" xml:space="preserve">
<ellipse fill="#FBC24E" cx="14.13" cy="14.132" rx="14.13" ry="14.13"/>
<ellipse fill="#F4EFED" cx="14.13" cy="14.133" rx="11.269" ry="11.269"/>
<path fill="#DFA52D" d="M14.133,0c-0.191,0-0.381,0.005-0.569,0.013c7.541,0.299,13.562,6.505,13.562,14.121
	c0,7.612-6.021,13.819-13.562,14.119c0.188,0.009,0.378,0.012,0.569,0.012c7.805,0,14.131-6.325,14.131-14.13
	C28.265,6.328,21.938,0,14.133,0L14.133,0z"/>
<path fill="#FBE06B" d="M14.133,28.264c0.19,0,0.381-0.003,0.569-0.012C7.162,27.952,1.14,21.745,1.14,14.133
	c0-7.615,6.022-13.822,13.562-14.121C14.515,0.005,14.324,0,14.133,0C6.328,0,0,6.328,0,14.133C0,21.938,6.328,28.264,14.133,28.264
	z"/>
<ellipse fill="#DFA52D" cx="14.158" cy="12.736" rx="5.265" ry="5.286"/>
<path fill="#DFA52D" d="M19.32,17.505c-1.238,1.858-3.088,3.041-5.162,3.041c-2.071,0-3.924-1.183-5.162-3.041
	c-1.265,0.842-2.047,1.993-2.047,3.261c0,2.584,3.229,4.678,7.209,4.678c3.982,0,7.209-2.094,7.209-4.678
	C21.367,19.498,20.588,18.347,19.32,17.505z"/>
<ellipse fill="#60CCEF" cx="13.778" cy="12.166" rx="5.265" ry="5.286"/>
<path fill="#60CCEF" d="M18.939,16.935c-1.238,1.858-3.088,3.041-5.162,3.041c-2.071,0-3.924-1.183-5.162-3.041
	c-1.265,0.842-2.047,1.993-2.047,3.261c0,2.584,3.229,4.678,7.209,4.678c3.982,0,7.208-2.094,7.208-4.678
	C20.986,18.928,20.207,17.776,18.939,16.935z"/>
</svg>
