<svg xmlns="http://www.w3.org/2000/svg" width="786" height="450.218" viewBox="0 0 786 450.218">
  <g id="Grupo_12" data-name="Grupo 12" transform="translate(-381 -242.782)">
    <g id="Grupo_6" data-name="Grupo 6" transform="translate(-51)">
      <g id="Caminho_1" data-name="Caminho 1" transform="translate(698 533)" fill="#fff">
        <path d="M 28.5 51.5 C 24.71431922912598 51.5 21.04249000549316 50.8238410949707 17.58650970458984 49.49031066894531 C 14.25088977813721 48.20322036743164 11.25580024719238 46.36119079589844 8.684439659118652 44.01538848876953 C 6.116360187530518 41.67258834838867 4.100649833679199 38.94556045532227 2.693289995193481 35.91006088256836 C 1.237930059432983 32.77103042602539 0.5 29.43680953979492 0.5 26 C 0.5 22.56319046020508 1.237930059432983 19.22896957397461 2.693289995193481 16.08993911743164 C 4.100649833679199 13.05443954467773 6.116360187530518 10.3274097442627 8.684439659118652 7.984610080718994 C 11.25580024719238 5.638810157775879 14.25088977813721 3.796780109405518 17.58650970458984 2.509690046310425 C 21.04249000549316 1.176159977912903 24.71431922912598 0.5 28.5 0.5 C 32.28569030761719 0.5 35.95751953125 1.176159977912903 39.41349029541016 2.509690046310425 C 42.74911880493164 3.796780109405518 45.74420928955078 5.638810157775879 48.31555938720703 7.984610080718994 C 50.88364028930664 10.3274097442627 52.89934921264648 13.05443954467773 54.30670928955078 16.08993911743164 C 55.76206970214844 19.22896957397461 56.5 22.56319046020508 56.5 26 C 56.5 29.43680953979492 55.76206970214844 32.77103042602539 54.30670928955078 35.91006088256836 C 52.89934921264648 38.94556045532227 50.88364028930664 41.67258834838867 48.31555938720703 44.01538848876953 C 45.74420928955078 46.36119079589844 42.74911880493164 48.20322036743164 39.41349029541016 49.49031066894531 C 35.95751953125 50.8238410949707 32.28569030761719 51.5 28.5 51.5 Z" stroke="none"/>
        <path d="M 28.5 1 C 24.77610015869141 1 21.16482925415039 1.664878845214844 17.76649856567383 2.976158142089844 C 14.48900985717773 4.240829467773438 11.5467414855957 6.050189971923828 9.021419525146484 8.353988647460938 C 6.502658843994141 10.65180969238281 4.526191711425781 13.32530975341797 3.14691162109375 16.30025100708008 C 1.722320556640625 19.37289810180664 1 22.63636016845703 1 26 C 1 29.36363983154297 1.722320556640625 32.62709808349609 3.14691162109375 35.69975280761719 C 4.526191711425781 38.67469024658203 6.502658843994141 41.34819030761719 9.021419525146484 43.64601135253906 C 11.5467414855957 45.94981002807617 14.48900985717773 47.75917053222656 17.76649856567383 49.02384185791016 C 21.16482925415039 50.33512115478516 24.77610015869141 51 28.5 51 C 32.22389984130859 51 35.83517074584961 50.33512115478516 39.23349761962891 49.02384185791016 C 42.51099014282227 47.75917053222656 45.45326232910156 45.94981002807617 47.97858047485352 43.64601135253906 C 50.49734115600586 41.34819030761719 52.47380828857422 38.67469024658203 53.85308837890625 35.69975280761719 C 55.27767944335938 32.62709808349609 56 29.36363983154297 56 26 C 56 22.63636016845703 55.27767944335938 19.37289810180664 53.85308837890625 16.30025100708008 C 52.47380828857422 13.32530975341797 50.49734115600586 10.65180969238281 47.97858047485352 8.353988647460938 C 45.45326232910156 6.050189971923828 42.51099014282227 4.240829467773438 39.23349761962891 2.976158142089844 C 35.83517074584961 1.664878845214844 32.22389984130859 1 28.5 1 M 28.5 0 C 44.24011993408203 0 57 11.64059829711914 57 26 C 57 40.35939788818359 44.24011993408203 52 28.5 52 C 12.75988006591797 52 0 40.35939788818359 0 26 C 0 11.64059829711914 12.75988006591797 0 28.5 0 Z" stroke="none" fill="#707070"/>
      </g>
      <g id="Elipse_11" data-name="Elipse 11" transform="translate(641 641)" fill="#fff" stroke="#707070" stroke-width="1">
        <ellipse cx="28.5" cy="26" rx="28.5" ry="26" stroke="none"/>
        <ellipse cx="28.5" cy="26" rx="28" ry="25.5" fill="none"/>
      </g>
      <g id="Elipse_12" data-name="Elipse 12" transform="translate(755 641)" fill="#fff" stroke="#707070" stroke-width="1">
        <ellipse cx="28.5" cy="26" rx="28.5" ry="26" stroke="none"/>
        <ellipse cx="28.5" cy="26" rx="28" ry="25.5" fill="none"/>
      </g>
    </g>
    <g id="Grupo_7" data-name="Grupo 7" transform="translate(355 -3)">
      <g id="Caminho_1-2" data-name="Caminho 1" transform="translate(698 533)" fill="#fff">
        <path d="M 28.5 51.5 C 24.71431922912598 51.5 21.04249000549316 50.8238410949707 17.58650970458984 49.49031066894531 C 14.25088977813721 48.20322036743164 11.25580024719238 46.36119079589844 8.684439659118652 44.01538848876953 C 6.116360187530518 41.67258834838867 4.100649833679199 38.94556045532227 2.693289995193481 35.91006088256836 C 1.237930059432983 32.77103042602539 0.5 29.43680953979492 0.5 26 C 0.5 22.56319046020508 1.237930059432983 19.22896957397461 2.693289995193481 16.08993911743164 C 4.100649833679199 13.05443954467773 6.116360187530518 10.3274097442627 8.684439659118652 7.984610080718994 C 11.25580024719238 5.638810157775879 14.25088977813721 3.796780109405518 17.58650970458984 2.509690046310425 C 21.04249000549316 1.176159977912903 24.71431922912598 0.5 28.5 0.5 C 32.28569030761719 0.5 35.95751953125 1.176159977912903 39.41349029541016 2.509690046310425 C 42.74911880493164 3.796780109405518 45.74420928955078 5.638810157775879 48.31555938720703 7.984610080718994 C 50.88364028930664 10.3274097442627 52.89934921264648 13.05443954467773 54.30670928955078 16.08993911743164 C 55.76206970214844 19.22896957397461 56.5 22.56319046020508 56.5 26 C 56.5 29.43680953979492 55.76206970214844 32.77103042602539 54.30670928955078 35.91006088256836 C 52.89934921264648 38.94556045532227 50.88364028930664 41.67258834838867 48.31555938720703 44.01538848876953 C 45.74420928955078 46.36119079589844 42.74911880493164 48.20322036743164 39.41349029541016 49.49031066894531 C 35.95751953125 50.8238410949707 32.28569030761719 51.5 28.5 51.5 Z" stroke="none"/>
        <path d="M 28.5 1 C 24.77610015869141 1 21.16482925415039 1.664878845214844 17.76649856567383 2.976158142089844 C 14.48900985717773 4.240829467773438 11.5467414855957 6.050189971923828 9.021419525146484 8.353988647460938 C 6.502658843994141 10.65180969238281 4.526191711425781 13.32530975341797 3.14691162109375 16.30025100708008 C 1.722320556640625 19.37289810180664 1 22.63636016845703 1 26 C 1 29.36363983154297 1.722320556640625 32.62709808349609 3.14691162109375 35.69975280761719 C 4.526191711425781 38.67469024658203 6.502658843994141 41.34819030761719 9.021419525146484 43.64601135253906 C 11.5467414855957 45.94981002807617 14.48900985717773 47.75917053222656 17.76649856567383 49.02384185791016 C 21.16482925415039 50.33512115478516 24.77610015869141 51 28.5 51 C 32.22389984130859 51 35.83517074584961 50.33512115478516 39.23349761962891 49.02384185791016 C 42.51099014282227 47.75917053222656 45.45326232910156 45.94981002807617 47.97858047485352 43.64601135253906 C 50.49734115600586 41.34819030761719 52.47380828857422 38.67469024658203 53.85308837890625 35.69975280761719 C 55.27767944335938 32.62709808349609 56 29.36363983154297 56 26 C 56 22.63636016845703 55.27767944335938 19.37289810180664 53.85308837890625 16.30025100708008 C 52.47380828857422 13.32530975341797 50.49734115600586 10.65180969238281 47.97858047485352 8.353988647460938 C 45.45326232910156 6.050189971923828 42.51099014282227 4.240829467773438 39.23349761962891 2.976158142089844 C 35.83517074584961 1.664878845214844 32.22389984130859 1 28.5 1 M 28.5 0 C 44.24011993408203 0 57 11.64059829711914 57 26 C 57 40.35939788818359 44.24011993408203 52 28.5 52 C 12.75988006591797 52 0 40.35939788818359 0 26 C 0 11.64059829711914 12.75988006591797 0 28.5 0 Z" stroke="none" fill="#707070"/>
      </g>
      <g id="Elipse_11-2" data-name="Elipse 11" transform="translate(641 641)" fill="#fff" stroke="#707070" stroke-width="1">
        <ellipse cx="28.5" cy="26" rx="28.5" ry="26" stroke="none"/>
        <ellipse cx="28.5" cy="26" rx="28" ry="25.5" fill="none"/>
      </g>
      <g id="Elipse_12-2" data-name="Elipse 12" transform="translate(755 641)" fill="#fff" stroke="#707070" stroke-width="1">
        <ellipse cx="28.5" cy="26" rx="28.5" ry="26" stroke="none"/>
        <ellipse cx="28.5" cy="26" rx="28" ry="25.5" fill="none"/>
      </g>
    </g>
    <g id="Grupo_8" data-name="Grupo 8" transform="translate(152)">
      <g id="Caminho_1-3" data-name="Caminho 1" transform="translate(698 533)" fill="#fff">
        <path d="M 28.5 51.5 C 24.71431922912598 51.5 21.04249000549316 50.8238410949707 17.58650970458984 49.49031066894531 C 14.25088977813721 48.20322036743164 11.25580024719238 46.36119079589844 8.684439659118652 44.01538848876953 C 6.116360187530518 41.67258834838867 4.100649833679199 38.94556045532227 2.693289995193481 35.91006088256836 C 1.237930059432983 32.77103042602539 0.5 29.43680953979492 0.5 26 C 0.5 22.56319046020508 1.237930059432983 19.22896957397461 2.693289995193481 16.08993911743164 C 4.100649833679199 13.05443954467773 6.116360187530518 10.3274097442627 8.684439659118652 7.984610080718994 C 11.25580024719238 5.638810157775879 14.25088977813721 3.796780109405518 17.58650970458984 2.509690046310425 C 21.04249000549316 1.176159977912903 24.71431922912598 0.5 28.5 0.5 C 32.28569030761719 0.5 35.95751953125 1.176159977912903 39.41349029541016 2.509690046310425 C 42.74911880493164 3.796780109405518 45.74420928955078 5.638810157775879 48.31555938720703 7.984610080718994 C 50.88364028930664 10.3274097442627 52.89934921264648 13.05443954467773 54.30670928955078 16.08993911743164 C 55.76206970214844 19.22896957397461 56.5 22.56319046020508 56.5 26 C 56.5 29.43680953979492 55.76206970214844 32.77103042602539 54.30670928955078 35.91006088256836 C 52.89934921264648 38.94556045532227 50.88364028930664 41.67258834838867 48.31555938720703 44.01538848876953 C 45.74420928955078 46.36119079589844 42.74911880493164 48.20322036743164 39.41349029541016 49.49031066894531 C 35.95751953125 50.8238410949707 32.28569030761719 51.5 28.5 51.5 Z" stroke="none"/>
        <path d="M 28.5 1 C 24.77610015869141 1 21.16482925415039 1.664878845214844 17.76649856567383 2.976158142089844 C 14.48900985717773 4.240829467773438 11.5467414855957 6.050189971923828 9.021419525146484 8.353988647460938 C 6.502658843994141 10.65180969238281 4.526191711425781 13.32530975341797 3.14691162109375 16.30025100708008 C 1.722320556640625 19.37289810180664 1 22.63636016845703 1 26 C 1 29.36363983154297 1.722320556640625 32.62709808349609 3.14691162109375 35.69975280761719 C 4.526191711425781 38.67469024658203 6.502658843994141 41.34819030761719 9.021419525146484 43.64601135253906 C 11.5467414855957 45.94981002807617 14.48900985717773 47.75917053222656 17.76649856567383 49.02384185791016 C 21.16482925415039 50.33512115478516 24.77610015869141 51 28.5 51 C 32.22389984130859 51 35.83517074584961 50.33512115478516 39.23349761962891 49.02384185791016 C 42.51099014282227 47.75917053222656 45.45326232910156 45.94981002807617 47.97858047485352 43.64601135253906 C 50.49734115600586 41.34819030761719 52.47380828857422 38.67469024658203 53.85308837890625 35.69975280761719 C 55.27767944335938 32.62709808349609 56 29.36363983154297 56 26 C 56 22.63636016845703 55.27767944335938 19.37289810180664 53.85308837890625 16.30025100708008 C 52.47380828857422 13.32530975341797 50.49734115600586 10.65180969238281 47.97858047485352 8.353988647460938 C 45.45326232910156 6.050189971923828 42.51099014282227 4.240829467773438 39.23349761962891 2.976158142089844 C 35.83517074584961 1.664878845214844 32.22389984130859 1 28.5 1 M 28.5 0 C 44.24011993408203 0 57 11.64059829711914 57 26 C 57 40.35939788818359 44.24011993408203 52 28.5 52 C 12.75988006591797 52 0 40.35939788818359 0 26 C 0 11.64059829711914 12.75988006591797 0 28.5 0 Z" stroke="none" fill="#707070"/>
      </g>
      <g id="Elipse_11-3" data-name="Elipse 11" transform="translate(641 641)" fill="#fff" stroke="#707070" stroke-width="1">
        <ellipse cx="28.5" cy="26" rx="28.5" ry="26" stroke="none"/>
        <ellipse cx="28.5" cy="26" rx="28" ry="25.5" fill="none"/>
      </g>
      <g id="Elipse_12-3" data-name="Elipse 12" transform="translate(755 641)" fill="#fff" stroke="#707070" stroke-width="1">
        <ellipse cx="28.5" cy="26" rx="28.5" ry="26" stroke="none"/>
        <ellipse cx="28.5" cy="26" rx="28" ry="25.5" fill="none"/>
      </g>
    </g>
    <g id="Grupo_5" data-name="Grupo 5" transform="translate(-60)">
      <g id="Elipse_10" data-name="Elipse 10" transform="translate(504 533)" fill="#fff" stroke="#707070" stroke-width="1">
        <ellipse cx="28.5" cy="26" rx="28.5" ry="26" stroke="none"/>
        <ellipse cx="28.5" cy="26" rx="28" ry="25.5" fill="none"/>
      </g>
      <g id="Elipse_8" data-name="Elipse 8" transform="translate(441 641)" fill="#fff" stroke="#707070" stroke-width="1">
        <ellipse cx="28.5" cy="26" rx="28.5" ry="26" stroke="none"/>
        <ellipse cx="28.5" cy="26" rx="28" ry="25.5" fill="none"/>
      </g>
      <g id="Elipse_9" data-name="Elipse 9" transform="translate(561 641)" fill="#fff" stroke="#707070" stroke-width="1">
        <ellipse cx="28.5" cy="26" rx="28.5" ry="26" stroke="none"/>
        <ellipse cx="28.5" cy="26" rx="28" ry="25.5" fill="none"/>
      </g>
    </g>
    <g id="Grupo_1" data-name="Grupo 1" transform="translate(167.654 -112.218)">
      <g id="Caminho_2" data-name="Caminho 2" transform="translate(542.346 355)" fill="#fff">
        <path d="M 65 118.5140914916992 C 56.28704833984375 118.5140914916992 47.83533477783203 116.9520950317383 39.87961578369141 113.8714599609375 C 36.05671691894531 112.3911590576172 32.36966705322266 110.5590286254883 28.92090034484863 108.4259719848633 C 25.50555038452148 106.313606262207 22.29408264160156 103.8878402709961 19.37568283081055 101.2160720825195 C 16.45808410644531 98.5450439453125 13.80943298339844 95.60615539550781 11.50329971313477 92.48110961914063 C 9.175766944885254 89.32705688476563 7.176799774169922 85.95552825927734 5.561916828155518 82.46015930175781 C 2.203083276748657 75.19004058837891 0.5 67.46750640869141 0.5 59.50704193115234 C 0.5 51.54657363891602 2.203083276748657 43.82404327392578 5.561916828155518 36.55392456054688 C 7.176799774169922 33.05855941772461 9.175766944885254 29.68702507019043 11.50329971313477 26.5329761505127 C 13.80943298339844 23.40792465209961 16.45808410644531 20.46904182434082 19.37568283081055 17.79800796508789 C 22.29408264160156 15.12624168395996 25.50555038452148 12.7004919052124 28.92090034484863 10.58810901641846 C 32.36966705322266 8.455059051513672 36.05671691894531 6.622941970825195 39.87961578369141 5.142625331878662 C 47.83533477783203 2.062008619308472 56.28704833984375 0.5000085830688477 65 0.5000085830688477 C 73.71295166015625 0.5000085830688477 82.16466522216797 2.062008619308472 90.12038421630859 5.142625331878662 C 93.94328308105469 6.622941970825195 97.63033294677734 8.455059051513672 101.0791015625 10.58810901641846 C 104.4944534301758 12.7004919052124 107.7059173583984 15.12624168395996 110.6243133544922 17.79800796508789 C 113.5419158935547 20.46904182434082 116.1905670166016 23.40792465209961 118.496696472168 26.5329761505127 C 120.8242340087891 29.68702507019043 122.8231964111328 33.05855941772461 124.4380798339844 36.55392456054688 C 127.7969131469727 43.82404327392578 129.5 51.54657363891602 129.5 59.50704193115234 C 129.5 67.46750640869141 127.7969131469727 75.19004058837891 124.4380798339844 82.46015930175781 C 122.8231964111328 85.95552825927734 120.8242340087891 89.32705688476563 118.496696472168 92.48110961914063 C 116.1905670166016 95.60615539550781 113.5419158935547 98.5450439453125 110.6243133544922 101.2160720825195 C 107.7059173583984 103.8878402709961 104.4944534301758 106.313606262207 101.0791015625 108.4259719848633 C 97.63033294677734 110.5590286254883 93.94328308105469 112.3911590576172 90.12038421630859 113.8714599609375 C 82.16466522216797 116.9520950317383 73.71295166015625 118.5140914916992 65 118.5140914916992 Z" stroke="none"/>
        <path d="M 65 0.9999923706054688 C 56.34905242919922 0.9999923706054688 47.95806884765625 2.550643920898438 40.06016540527344 5.608871459960938 C 36.26588439941406 7.078109741210938 32.60658264160156 8.89642333984375 29.18389892578125 11.01334381103516 C 25.79506683349609 13.10930633544922 22.60870361328125 15.51607513427734 19.71331787109375 18.16679382324219 C 16.81950378417969 20.81605529785156 14.19259643554688 23.73074340820313 11.90561676025391 26.82985687255859 C 9.598152160644531 29.95672607421875 7.616531372070313 33.29892730712891 6.015815734863281 36.76362609863281 C 2.687568664550781 43.96752166748047 1 51.6195068359375 1 59.50704193115234 C 1 67.39456176757813 2.687568664550781 75.04655456542969 6.015815734863281 82.25045776367188 C 7.616531372070313 85.71516418457031 9.598152160644531 89.05734252929688 11.90561676025391 92.1842041015625 C 14.19259643554688 95.2833251953125 16.81950378417969 98.19801330566406 19.71331787109375 100.8472747802734 C 22.60870361328125 103.4979934692383 25.79506683349609 105.9047546386719 29.18389892578125 108.0007247924805 C 32.60658264160156 110.1176452636719 36.26588439941406 111.9359588623047 40.06016540527344 113.4051895141602 C 47.95806884765625 116.4634246826172 56.34905242919922 118.0140762329102 65 118.0140762329102 C 73.65095520019531 118.0140762329102 82.04193115234375 116.4634246826172 89.93983459472656 113.4051895141602 C 93.73411560058594 111.9359588623047 97.39341735839844 110.1176452636719 100.8161010742188 108.0007247924805 C 104.2049331665039 105.9047546386719 107.3912963867188 103.4979934692383 110.2866821289063 100.8472747802734 C 113.1804962158203 98.19801330566406 115.8074035644531 95.2833251953125 118.0943832397461 92.1842041015625 C 120.4018478393555 89.05734252929688 122.3834686279297 85.71516418457031 123.9841842651367 82.25045776367188 C 127.3124313354492 75.04655456542969 129 67.39456176757813 129 59.50704193115234 C 129 51.6195068359375 127.3124313354492 43.96752166748047 123.9841842651367 36.76362609863281 C 122.3834686279297 33.29892730712891 120.4018478393555 29.95672607421875 118.0943832397461 26.82985687255859 C 115.8074035644531 23.73074340820313 113.1804962158203 20.81605529785156 110.2866821289063 18.16679382324219 C 107.3912963867188 15.51607513427734 104.2049331665039 13.10930633544922 100.8161010742188 11.01334381103516 C 97.39341735839844 8.89642333984375 93.73411560058594 7.078109741210938 89.93983459472656 5.608871459960938 C 82.04193115234375 2.550643920898438 73.65095520019531 0.9999923706054688 65 0.9999923706054688 M 65 -7.62939453125e-06 C 100.8984985351563 -7.62939453125e-06 130 26.6422119140625 130 59.50704193115234 C 130 92.37185668945313 100.8984985351563 119.0140762329102 65 119.0140762329102 C 29.10150146484375 119.0140762329102 0 92.37185668945313 0 59.50704193115234 C 0 26.6422119140625 29.10150146484375 -7.62939453125e-06 65 -7.62939453125e-06 Z" stroke="none" fill="#707070"/>
      </g>
    </g>
    <g id="Grupo_11" data-name="Grupo 11" transform="translate(-10.346 57)">
      <g id="Caminho_2-2" data-name="Caminho 2" transform="translate(542.346 355)" fill="#fff">
        <path d="M 35.5 64.5 C 30.7695198059082 64.5 26.18115043640137 63.65206146240234 21.86234092712402 61.97972106933594 C 17.69322967529297 60.36534881591797 13.94956016540527 58.05477905273438 10.7353401184082 55.11217880249023 C 7.5242600440979 52.17245864868164 5.003699779510498 48.75030136108398 3.243659973144531 44.94076156616211 C 1.423099994659424 41.00020980834961 0.5 36.81452941894531 0.5 32.5 C 0.5 28.18547058105469 1.423099994659424 23.99979019165039 3.243659973144531 20.05924034118652 C 5.003699779510498 16.24970054626465 7.5242600440979 12.82754039764404 10.7353401184082 9.887820243835449 C 13.94956016540527 6.945219993591309 17.69322967529297 4.634650230407715 21.86234092712402 3.020279884338379 C 26.18115043640137 1.347939968109131 30.7695198059082 0.5 35.5 0.5 C 40.2304801940918 0.5 44.81885147094727 1.347939968109131 49.13766098022461 3.020279884338379 C 53.30677032470703 4.634650230407715 57.05044174194336 6.945219993591309 60.2646598815918 9.887820243835449 C 63.47573852539063 12.82754039764404 65.99629974365234 16.24970054626465 67.75634002685547 20.05924034118652 C 69.57689666748047 23.99979019165039 70.5 28.18547058105469 70.5 32.5 C 70.5 36.81452941894531 69.57689666748047 41.00020980834961 67.75634002685547 44.94076156616211 C 65.99629974365234 48.75030136108398 63.47573852539063 52.17245864868164 60.2646598815918 55.11217880249023 C 57.05044174194336 58.05477905273438 53.30677032470703 60.36534881591797 49.13766098022461 61.97972106933594 C 44.81885147094727 63.65206146240234 40.2304801940918 64.5 35.5 64.5 Z" stroke="none"/>
        <path d="M 35.5 1 C 30.83152008056641 1 26.30389022827148 1.836589813232422 22.04288864135742 3.486541748046875 C 17.93196868896484 5.078369140625 14.24116134643555 7.356159210205078 11.07295989990234 10.25661849975586 C 7.91107177734375 13.15129852294922 5.42962646484375 16.51993942260742 3.697563171386719 20.26893997192383 C 1.9075927734375 24.14328002929688 1 28.25839996337891 1 32.5 C 1 36.74160003662109 1.9075927734375 40.85671997070313 3.697563171386719 44.73106002807617 C 5.42962646484375 48.48006057739258 7.91107177734375 51.84870147705078 11.07295989990234 54.74337768554688 C 14.24116134643555 57.64384078979492 17.93196868896484 59.921630859375 22.04288864135742 61.51345825195313 C 26.30389022827148 63.16341018676758 30.83152008056641 64 35.5 64 C 40.16847991943359 64 44.69610977172852 63.16341018676758 48.95710754394531 61.51345825195313 C 53.06803131103516 59.921630859375 56.75883865356445 57.64384078979492 59.92704010009766 54.74337768554688 C 63.08892822265625 51.84870147705078 65.57037353515625 48.48006057739258 67.30243682861328 44.73106002807617 C 69.0924072265625 40.85671997070313 70 36.74160003662109 70 32.5 C 70 28.25839996337891 69.0924072265625 24.14328002929688 67.30243682861328 20.26893997192383 C 65.57037353515625 16.51993942260742 63.08892822265625 13.15129852294922 59.92704010009766 10.25661849975586 C 56.75883865356445 7.356159210205078 53.06803131103516 5.078369140625 48.95710754394531 3.486541748046875 C 44.69610977172852 1.836589813232422 40.16847991943359 1 35.5 1 M 35.5 0 C 55.10610961914063 0 71 14.55075073242188 71 32.5 C 71 50.44924926757813 55.10610961914063 65 35.5 65 C 15.89389038085938 65 0 50.44924926757813 0 32.5 C 0 14.55075073242188 15.89389038085938 0 35.5 0 Z" stroke="none" fill="#707070"/>
      </g>
    </g>
    <g id="Grupo_9" data-name="Grupo 9" transform="translate(402.654 64)">
      <g id="Caminho_2-3" data-name="Caminho 2" transform="translate(542.346 355)" fill="#fff">
        <path d="M 35.5 64.5 C 30.7695198059082 64.5 26.18115043640137 63.65206146240234 21.86234092712402 61.97972106933594 C 17.69322967529297 60.36534881591797 13.94956016540527 58.05477905273438 10.7353401184082 55.11217880249023 C 7.5242600440979 52.17245864868164 5.003699779510498 48.75030136108398 3.243659973144531 44.94076156616211 C 1.423099994659424 41.00020980834961 0.5 36.81452941894531 0.5 32.5 C 0.5 28.18547058105469 1.423099994659424 23.99979019165039 3.243659973144531 20.05924034118652 C 5.003699779510498 16.24970054626465 7.5242600440979 12.82754039764404 10.7353401184082 9.887820243835449 C 13.94956016540527 6.945219993591309 17.69322967529297 4.634650230407715 21.86234092712402 3.020279884338379 C 26.18115043640137 1.347939968109131 30.7695198059082 0.5 35.5 0.5 C 40.2304801940918 0.5 44.81885147094727 1.347939968109131 49.13766098022461 3.020279884338379 C 53.30677032470703 4.634650230407715 57.05044174194336 6.945219993591309 60.2646598815918 9.887820243835449 C 63.47573852539063 12.82754039764404 65.99629974365234 16.24970054626465 67.75634002685547 20.05924034118652 C 69.57689666748047 23.99979019165039 70.5 28.18547058105469 70.5 32.5 C 70.5 36.81452941894531 69.57689666748047 41.00020980834961 67.75634002685547 44.94076156616211 C 65.99629974365234 48.75030136108398 63.47573852539063 52.17245864868164 60.2646598815918 55.11217880249023 C 57.05044174194336 58.05477905273438 53.30677032470703 60.36534881591797 49.13766098022461 61.97972106933594 C 44.81885147094727 63.65206146240234 40.2304801940918 64.5 35.5 64.5 Z" stroke="none"/>
        <path d="M 35.5 1 C 30.83152008056641 1 26.30389022827148 1.836589813232422 22.04288864135742 3.486541748046875 C 17.93196868896484 5.078369140625 14.24116134643555 7.356159210205078 11.07295989990234 10.25661849975586 C 7.91107177734375 13.15129852294922 5.42962646484375 16.51993942260742 3.697563171386719 20.26893997192383 C 1.9075927734375 24.14328002929688 1 28.25839996337891 1 32.5 C 1 36.74160003662109 1.9075927734375 40.85671997070313 3.697563171386719 44.73106002807617 C 5.42962646484375 48.48006057739258 7.91107177734375 51.84870147705078 11.07295989990234 54.74337768554688 C 14.24116134643555 57.64384078979492 17.93196868896484 59.921630859375 22.04288864135742 61.51345825195313 C 26.30389022827148 63.16341018676758 30.83152008056641 64 35.5 64 C 40.16847991943359 64 44.69610977172852 63.16341018676758 48.95710754394531 61.51345825195313 C 53.06803131103516 59.921630859375 56.75883865356445 57.64384078979492 59.92704010009766 54.74337768554688 C 63.08892822265625 51.84870147705078 65.57037353515625 48.48006057739258 67.30243682861328 44.73106002807617 C 69.0924072265625 40.85671997070313 70 36.74160003662109 70 32.5 C 70 28.25839996337891 69.0924072265625 24.14328002929688 67.30243682861328 20.26893997192383 C 65.57037353515625 16.51993942260742 63.08892822265625 13.15129852294922 59.92704010009766 10.25661849975586 C 56.75883865356445 7.356159210205078 53.06803131103516 5.078369140625 48.95710754394531 3.486541748046875 C 44.69610977172852 1.836589813232422 40.16847991943359 1 35.5 1 M 35.5 0 C 55.10610961914063 0 71 14.55075073242188 71 32.5 C 71 50.44924926757813 55.10610961914063 65 35.5 65 C 15.89389038085938 65 0 50.44924926757813 0 32.5 C 0 14.55075073242188 15.89389038085938 0 35.5 0 Z" stroke="none" fill="#707070"/>
      </g>
    </g>
    <line id="Linha_1" data-name="Linha 1" x1="124" y2="96" transform="translate(590.5 323.5)" fill="none" stroke="#707070" stroke-width="1"/>
    <line id="Linha_10" data-name="Linha 10" x1="138" y1="96" transform="translate(835.5 323.5)" fill="none" stroke="#707070" stroke-width="1"/>
    <line id="Linha_2" data-name="Linha 2" x1="57" y2="68" transform="translate(896.5 471.5)" fill="none" stroke="#707070" stroke-width="1"/>
    <line id="Linha_13" data-name="Linha 13" x1="62" y2="68" transform="translate(480.5 466.5)" fill="none" stroke="#707070" stroke-width="1"/>
    <line id="Linha_3" data-name="Linha 3" y1="64" x2="37" transform="translate(419.5 579.5)" fill="none" stroke="#707070" stroke-width="1"/>
    <line id="Linha_5" data-name="Linha 5" y1="64" x2="37" transform="translate(619.5 577.5)" fill="none" stroke="#707070" stroke-width="1"/>
    <line id="Linha_14" data-name="Linha 14" y1="64" x2="37" transform="translate(822.5 577.5)" fill="none" stroke="#707070" stroke-width="1"/>
    <line id="Linha_8" data-name="Linha 8" y1="64" x2="37" transform="translate(1025.5 574.5)" fill="none" stroke="#707070" stroke-width="1"/>
    <line id="Linha_4" data-name="Linha 4" x1="37" y1="62" transform="translate(489.5 579.5)" fill="none" stroke="#707070" stroke-width="1"/>
    <line id="Linha_6" data-name="Linha 6" x1="37" y1="62" transform="translate(692.5 579.5)" fill="none" stroke="#707070" stroke-width="1"/>
    <line id="Linha_7" data-name="Linha 7" x1="37" y1="62" transform="translate(895.5 579.5)" fill="none" stroke="#707070" stroke-width="1"/>
    <line id="Linha_9" data-name="Linha 9" x1="37" y1="62" transform="translate(1095.5 577.5)" fill="none" stroke="#707070" stroke-width="1"/>
    <line id="Linha_11" data-name="Linha 11" x2="69" y2="70" transform="translate(593.5 466.5)" fill="none" stroke="#707070" stroke-width="1"/>
    <line id="Linha_12" data-name="Linha 12" x2="62" y2="62" transform="translate(1008.5 470.5)" fill="none" stroke="#707070" stroke-width="1"/>
  </g>
</svg>
