<?xml version="1.0" encoding="utf-8"?>
<!-- Generator: Adobe Illustrator 16.0.4, SVG Export Plug-In . SVG Version: 6.00 Build 0)  -->
<!DOCTYPE svg PUBLIC "-//W3C//DTD SVG 1.1//EN" "http://www.w3.org/Graphics/SVG/1.1/DTD/svg11.dtd">
<svg version="1.1" id="Layer_1" xmlns="http://www.w3.org/2000/svg" xmlns:xlink="http://www.w3.org/1999/xlink" x="0px" y="0px"
	 width="28.35px" height="28.35px" viewBox="0 0 28.35 28.35" enable-background="new 0 0 28.35 28.35" xml:space="preserve">
<path fill="#F15822" d="M16.012,11.285l5.299,5.3c-0.359,0.582-0.568,1.268-0.568,2.003c0,2.101,1.701,3.805,3.805,3.805
	c2.1,0,3.803-1.704,3.803-3.805c0-2.102-1.703-3.805-3.803-3.805c-0.779,0-1.506,0.235-2.109,0.637l-5.02-5.021
	c0.957-0.869,1.559-2.124,1.559-3.518c0-2.624-2.127-4.75-4.75-4.75c-2.624,0-4.75,2.127-4.75,4.75c0,1.409,0.614,2.673,1.587,3.543
	L6.068,15.42c-0.604-0.402-1.328-0.637-2.107-0.637c-2.102,0-3.805,1.704-3.805,3.805c0,2.101,1.703,3.805,3.805,3.805
	c2.101,0,3.805-1.704,3.805-3.805c0-0.735-0.209-1.421-0.57-2.003l5.286-5.286C14.016,11.812,14.672,11.797,16.012,11.285z
	 M3.961,20.967c-1.314,0-2.38-1.065-2.38-2.379c0-1.314,1.066-2.379,2.38-2.379c1.314,0,2.38,1.064,2.38,2.379
	C6.341,19.901,5.275,20.967,3.961,20.967z M14.227,9.853c-1.642,0-2.971-1.331-2.971-2.971c0-1.641,1.33-2.972,2.971-2.972
	c1.643,0,2.973,1.331,2.973,2.972C17.199,8.522,15.869,9.853,14.227,9.853z M24.547,20.967c-1.314,0-2.381-1.065-2.381-2.379
	c0-1.314,1.066-2.379,2.381-2.379c1.312,0,2.379,1.064,2.379,2.379C26.926,19.901,25.859,20.967,24.547,20.967z"/>
</svg>
