<svg width="50.00000000000001" height="50.00000000000001" xmlns="http://www.w3.org/2000/svg">

 <g>
  <title>background</title>
  <rect fill="none" id="canvas_background" height="402" width="582" y="-1" x="-1"/>
 </g>
 <g>
  <title>Layer 1</title>
  <path fill="#ffffff" id="svg_1" d="m49,7l-48,0l0,36l48,0l0,-36zm-2,34l-44,0l0,-32l44,0l0,32z"/>
  <path fill="#ffffff" id="svg_2" d="m22.927832,27c0,-2.449 -1.773,-4.483 -4.101,-4.909c0.678,-0.854 1.101,-1.919 1.101,-3.091c0,-2.757 -2.243,-5 -5,-5s-5,2.243 -5,5c0,1.172 0.422,2.237 1.101,3.091c-2.328,0.426 -4.101,2.46 -4.101,4.909l0,7l16,0l0,-7zm-8,-11c1.654,0 3,1.346 3,3s-1.346,3 -3,3s-3,-1.346 -3,-3s1.346,-3 3,-3zm6,16l-12,0l0,-5c0,-1.654 1.346,-3 3,-3l6,0c1.654,0 3,1.346 3,3l0,5z"/>
  <rect fill="#ffffff" id="svg_3" y="17" x="26" width="7" height="2"/>
  <rect fill="#ffffff" id="svg_4" y="17.072168" x="35.927832" width="7" height="2"/>
  <rect fill="#ffffff" id="svg_5" y="21.95806" x="26.04194" width="3" height="2"/>
  <rect fill="#ffffff" id="svg_6" y="21.95806" x="32.04194" width="11" height="2"/>
  <rect fill="#ffffff" id="svg_7" y="26.95806" x="26.04194" width="8" height="2"/>
  <rect fill="#ffffff" id="svg_8" y="27.072168" x="38.927832" width="4" height="2"/>
  <rect fill="#ffffff" id="svg_9" y="31.95806" x="26.04194" width="2" height="2"/>
  <rect fill="#ffffff" id="svg_10" y="31.885892" x="30.114108" width="2" height="2"/>
  <rect fill="#ffffff" id="svg_11" y="31.885892" x="34.114108" width="2" height="2"/>
  <rect fill="#ffffff" id="svg_12" y="32.072168" x="40.927832" width="2" height="2"/>
 </g>
</svg>