<svg width="128" height="128" xmlns="http://www.w3.org/2000/svg">

 <g>
  <title>background</title>
  <rect fill="none" id="canvas_background" height="402" width="582" y="-1" x="-1"/>
 </g>
 <g>
  <title>Layer 1</title>
  <path stroke="#ffffff" fill="#ffffff" id="svg_2" d="m42,111.3l44,0c5.2,0 9.4,-4.2 9.4,-9.4l0,-70.6c0,-5.2 -4.2,-9.4 -9.4,-9.4l-44,0c-5.2,0 -9.4,4.2 -9.4,9.4l0,70.7c0,5.1 4.2,9.3 9.4,9.3zm-5.7,-9.3l0,-70.7c0,-3.1 2.5,-5.6 5.6,-5.6l44,0c3.1,0 5.6,2.5 5.6,5.6l0,70.7c0,3.1 -2.5,5.6 -5.6,5.6l-43.9,0c-3.1,0 -5.7,-2.5 -5.7,-5.6z"/>
  <path stroke="#ffffff" fill="none" id="svg_3" d="m81.8,52.3c-0.2,-3.5 -1.3,-6.7 -3.4,-9.5c-2.2,-2.9 -4.9,-5 -8.3,-6.3c-1.5,-0.6 -3.1,-0.9 -4.7,-1c-0.8,-0.1 -1.7,-0.1 -2.5,-0.1c-2.6,0.2 -5,0.8 -7.3,2c-4.9,2.7 -8,6.7 -9.2,12.2c-0.2,0.7 -0.2,1.4 -0.3,2.2c0,0.1 0,0.2 -0.1,0.3c0,0.8 0,1.6 0,2.4c0.1,0.5 0.1,0.9 0.2,1.4c0.4,3 1.6,5.7 3.4,8.2c2.6,3.3 5.9,5.6 10,6.6c0.9,0.2 1.9,0.3 2.9,0.5c0.1,0 0.2,0 0.3,0.1c0.8,0 1.6,0 2.4,0c0.4,-0.1 0.9,-0.1 1.3,-0.2c3.1,-0.4 5.9,-1.6 8.4,-3.6c3.3,-2.5 5.4,-5.8 6.4,-9.8c0.4,-1.8 0.6,-3.6 0.5,-5.4zm-19.1,-14.3c0,2.3 0,4.6 0,6.9c-1.9,0 -3.8,0 -5.8,0c0.6,-2.8 3.8,-6.7 5.8,-6.9zm0,9.4c0,1.6 0,3.1 0,4.7c-2.4,0 -4.7,0 -7.1,0c0.1,-0.7 0.1,-1.4 0.2,-2.1c0.1,-0.8 0.3,-1.6 0.4,-2.4c0,-0.2 0.1,-0.3 0.3,-0.3c2,0 4.1,0 6.1,0c0,0.1 0.1,0.1 0.1,0.1zm-5.5,-8c-0.3,0.4 -0.6,0.9 -0.8,1.3c-0.7,1.2 -1.3,2.6 -1.8,3.9c-0.1,0.3 -0.2,0.3 -0.5,0.3c-0.9,0 -1.9,0 -2.8,0c-0.1,0 -0.2,0 -0.4,0c1.1,-1.9 4.3,-4.8 6.3,-5.5zm-7.9,8.9c0.1,-0.3 0.2,-0.8 0.4,-0.9c0.2,-0.2 0.6,-0.1 1,-0.1c0.9,0 1.8,0 2.8,0c0.1,0 0.2,0 0.3,0c-0.2,1.6 -0.4,3.1 -0.6,4.7c-1.5,0 -3.1,0 -4.7,0c0.1,-1.2 0.4,-2.4 0.8,-3.7zm0.3,10.8c-0.6,-1.4 -0.9,-2.9 -1,-4.4c0,0 0,-0.1 0,-0.2c1.6,0 3.1,0 4.7,0c0.2,1.6 0.4,3.1 0.6,4.7c-0.2,0 -0.5,0 -0.7,0c-1,0 -2.1,0 -3.1,0c-0.3,0.1 -0.5,0.1 -0.5,-0.1zm1.3,2.6c0.1,0 0.2,0 0.3,0c1,0 2,0 2.9,0c0.2,0 0.3,0.1 0.4,0.3c0.6,1.9 1.4,3.6 2.6,5.2c0,0 0,0 0,0.1c-2.5,-1.4 -4.6,-3.2 -6.2,-5.6zm11.8,6.9c-0.9,-0.2 -1.6,-0.7 -2.3,-1.2c-1.1,-0.9 -1.9,-2.1 -2.5,-3.3c-0.4,-0.7 -0.6,-1.4 -0.9,-2.1c0,-0.1 -0.1,-0.2 -0.1,-0.3c1.9,0 3.9,0 5.8,0c0,2.3 0,4.6 0,6.9zm0,-9.4c-0.1,0 -0.2,0 -0.3,0c-1.9,0 -3.9,0 -5.8,0c-0.3,0 -0.4,-0.1 -0.4,-0.4c-0.2,-1.3 -0.3,-2.7 -0.5,-4c0,-0.1 0,-0.2 0,-0.3c2.4,0 4.7,0 7.1,0c-0.1,1.6 -0.1,3.2 -0.1,4.7zm15.7,-11.5c0.5,1.3 0.8,2.7 1,4.2c0,0.1 0,0.2 0,0.3c-1.6,0 -3.1,0 -4.7,0c-0.2,-1.6 -0.4,-3.2 -0.6,-4.7c0.1,0 0.2,0 0.3,0c1.2,0 2.3,0 3.5,0c0.3,-0.2 0.4,-0.1 0.5,0.2zm-1.4,-2.7c-0.5,0 -0.9,0 -1.4,0c-0.6,0 -1.2,0 -1.8,0c-0.3,0 -0.4,-0.1 -0.5,-0.4c-0.5,-1.6 -1.2,-3.1 -2.2,-4.6c-0.1,-0.2 -0.3,-0.4 -0.4,-0.6c2.6,1.3 4.7,3.1 6.3,5.6zm-11.8,-7c0.7,0.2 1.3,0.5 1.9,0.9c1.3,1 2.2,2.2 2.9,3.6c0.4,0.7 0.7,1.5 1.1,2.4c-2,0 -3.9,0 -5.9,0c0,-2.3 0,-4.6 0,-6.9zm-0.1,9.4c0.1,0 0.2,0 0.3,0c1.9,0 3.9,0 5.8,0c0.3,0 0.4,0.1 0.4,0.4c0.2,1.3 0.3,2.7 0.5,4c0,0.1 0,0.2 0,0.3c-2.4,0 -4.7,0 -7.1,0c0.1,-1.6 0.1,-3.1 0.1,-4.7zm0,7.1c2.4,0 4.7,0 7.1,0c-0.1,0.7 -0.1,1.4 -0.2,2c-0.1,0.8 -0.3,1.6 -0.4,2.4c0,0.2 -0.1,0.3 -0.3,0.3c-2,0 -4.1,0 -6.1,0c0,0 -0.1,0 -0.1,0c0,-1.5 0,-3.1 0,-4.7zm1.9,13.2c-0.6,0.4 -1.2,0.8 -1.9,0.9c0,-2.3 0,-4.6 0,-7c1.9,0 3.8,0 5.8,0c-0.8,2.4 -1.9,4.6 -3.9,6.1zm3.8,-0.5c1.1,-1.6 2,-3.4 2.6,-5.3c0,-0.1 0.2,-0.2 0.3,-0.2c1.1,0 2.1,0 3.2,0c0,0 0.1,0 0.1,0.1c-1.6,2.3 -3.7,4.1 -6.2,5.4zm8.4,-11c-0.2,1 -0.5,1.9 -0.8,2.9c0,0.1 -0.2,0.2 -0.3,0.2c-1.3,0 -2.6,0 -3.8,0c0,0 -0.1,0 -0.1,0c0.2,-1.6 0.4,-3.1 0.6,-4.7c1.5,0 3.1,0 4.7,0c-0.2,0.5 -0.2,1 -0.3,1.6z"/>
 </g>
</svg>