<?xml version="1.0" encoding="utf-8"?>
<!-- Generator: Adobe Illustrator 16.0.4, SVG Export Plug-In . SVG Version: 6.00 Build 0)  -->
<!DOCTYPE svg PUBLIC "-//W3C//DTD SVG 1.1//EN" "http://www.w3.org/Graphics/SVG/1.1/DTD/svg11.dtd">
<svg version="1.1" id="Layer_1" xmlns="http://www.w3.org/2000/svg" xmlns:xlink="http://www.w3.org/1999/xlink" x="0px" y="0px"
	 width="28.35px" height="28.35px" viewBox="0 0 28.35 28.35" enable-background="new 0 0 28.35 28.35" xml:space="preserve">
<g>
	<path fill="#72C48A" d="M10.083,15.363c-0.341,0.339-0.341,0.889,0,1.23l3.38,3.379c0.166,0.206,0.422,0.339,0.711,0.339
		c0.239,0,0.455-0.093,0.619-0.24c0-0.001,0.004-0.001,0.004-0.003l3.476-3.475c0.342-0.342,0.342-0.892,0-1.23
		c-0.341-0.341-0.889-0.341-1.23,0l-1.993,1.994v-6.599c0-0.481-0.393-0.871-0.872-0.871c-0.48,0-0.87,0.39-0.87,0.871v6.599
		l-1.996-1.994C10.972,15.022,10.422,15.022,10.083,15.363z"/>
	<path fill="#72C48A" d="M19.396,22.066H8.958c-0.481,0-0.871,0.39-0.871,0.87c0,0.481,0.39,0.871,0.871,0.871h10.438
		c0.482,0,0.87-0.39,0.87-0.871C20.267,22.456,19.879,22.066,19.396,22.066z"/>
	<path fill="#72C48A" d="M23.256,0.316H10.657c-0.767,0-1.486,0.298-2.03,0.843L3.708,6.077c-0.533,0.535-0.84,1.275-0.84,2.031
		v17.872c0,1.201,1.001,2.178,2.233,2.178h18.156c1.23,0,2.231-0.976,2.231-2.175V2.494C25.488,1.293,24.487,0.316,23.256,0.316z
		 M23.748,25.982c0,0.239-0.221,0.435-0.492,0.435H5.101c-0.271,0-0.493-0.196-0.493-0.438V8.108c0-0.3,0.12-0.591,0.331-0.802
		L9.857,2.39c0.214-0.215,0.498-0.333,0.799-0.333h12.599c0.271,0,0.492,0.196,0.492,0.437V25.982z"/>
	<path fill="#72C48A" d="M11.567,6.842V3.798c0-0.48-0.389-0.87-0.869-0.87c-0.481,0-0.871,0.39-0.871,0.87v3.044
		c0,0.239-0.195,0.435-0.435,0.435H6.349c-0.48,0-0.87,0.39-0.87,0.87c0,0.48,0.39,0.87,0.87,0.87h3.044
		C10.591,9.017,11.567,8.041,11.567,6.842z"/>
</g>
</svg>
