<?xml version="1.0" encoding="utf-8"?>
<!-- Generator: Adobe Illustrator 16.0.4, SVG Export Plug-In . SVG Version: 6.00 Build 0)  -->
<!DOCTYPE svg PUBLIC "-//W3C//DTD SVG 1.1//EN" "http://www.w3.org/Graphics/SVG/1.1/DTD/svg11.dtd">
<svg version="1.1" id="Layer_1" xmlns="http://www.w3.org/2000/svg" xmlns:xlink="http://www.w3.org/1999/xlink" x="0px" y="0px"
	 width="28.35px" height="28.35px" viewBox="0 0 28.35 28.35" enable-background="new 0 0 28.35 28.35" xml:space="preserve">
<path fill="#08A9B0" d="M7.087,8.098c-1.174,0-2.126,0.951-2.126,2.126c0,1.174,0.952,2.126,2.126,2.126s2.126-0.952,2.126-2.126
	l0,0C9.214,9.049,8.262,8.098,7.087,8.098z M7.087,10.933c-0.392,0-0.708-0.317-0.708-0.709s0.317-0.709,0.708-0.709
	s0.708,0.317,0.708,0.709S7.479,10.932,7.087,10.933z M12.049,8.098c-1.174,0-2.126,0.951-2.126,2.126
	c0,1.174,0.952,2.126,2.126,2.126c1.174,0,2.126-0.952,2.126-2.126l0,0C14.175,9.049,13.223,8.098,12.049,8.098z M12.049,10.933
	c-0.392,0-0.709-0.317-0.709-0.709s0.317-0.709,0.709-0.709c0.391,0,0.708,0.317,0.708,0.709
	C12.757,10.615,12.44,10.932,12.049,10.933z M17.01,8.098c-1.175,0-2.126,0.951-2.126,2.126c0,1.174,0.951,2.126,2.126,2.126
	s2.126-0.952,2.126-2.126l0,0C19.136,9.049,18.185,8.098,17.01,8.098z M17.01,10.933c-0.392,0-0.709-0.317-0.709-0.709
	s0.317-0.709,0.709-0.709s0.709,0.317,0.709,0.709l0,0C17.718,10.615,17.401,10.932,17.01,10.933z M24.806,10.224h-0.709V5.263
	c0-1.958-1.586-3.544-3.543-3.544H3.544C1.586,1.719,0,3.305,0,5.263v15.34c-0.002,0.544,0.438,0.986,0.981,0.988
	c0.004,0,0.007,0,0.011,0C1.252,21.59,1.5,21.485,1.682,21.3l2.571-2.571h5.67v0.709c0,1.957,1.586,3.543,3.543,3.543h10.631
	l2.57,2.575c0.182,0.187,0.431,0.291,0.69,0.292c0.544,0.004,0.987-0.434,0.992-0.977c0-0.004,0-0.007,0-0.011V13.768
	C28.35,11.81,26.763,10.224,24.806,10.224z M3.666,17.311L3.25,17.727l-1.833,1.832V5.263C1.419,4.089,2.37,3.138,3.544,3.136h17.01
	c1.174,0.002,2.125,0.953,2.126,2.127v9.922c-0.001,1.174-0.952,2.125-2.126,2.126H3.666z M26.933,16.591v7.226l-1.832-1.838
	l-0.416-0.417H13.466c-1.173-0.001-2.125-0.952-2.126-2.126v-0.709h9.214c1.957,0,3.543-1.587,3.543-3.544V11.64h0.709
	c1.174,0.001,2.125,0.952,2.127,2.126V16.591z"/>
</svg>
