<?xml version="1.0" encoding="utf-8"?>
<!-- Generator: Adobe Illustrator 16.0.4, SVG Export Plug-In . SVG Version: 6.00 Build 0)  -->
<!DOCTYPE svg PUBLIC "-//W3C//DTD SVG 1.1//EN" "http://www.w3.org/Graphics/SVG/1.1/DTD/svg11.dtd">
<svg version="1.1" id="Layer_1" xmlns="http://www.w3.org/2000/svg" xmlns:xlink="http://www.w3.org/1999/xlink" x="0px" y="0px"
	 width="28.35px" height="28.35px" viewBox="0 0 28.35 28.35" enable-background="new 0 0 28.35 28.35" xml:space="preserve">
<g>
	<g>
		<path fill="#51C8EC" d="M4.001,1.064C4.396,0.689,4.938,0.471,5.483,0.48c5.953,0,11.904,0,17.857,0
			c0.556-0.006,1.102,0.232,1.493,0.623c0.471,0.456,0.725,1.113,0.723,1.764c-0.001,1.229,0.001,2.458-0.001,3.688
			c-0.836,0.003-1.671-0.003-2.508,0.002c0.004-1.187,0-2.376,0.003-3.564c-5.768,0.001-11.538,0.001-17.307,0
			C5.742,4.181,5.744,5.368,5.742,6.555c-0.837,0.001-1.675,0.001-2.512,0c-0.003-1.231,0-2.461-0.002-3.692
			C3.23,2.192,3.504,1.52,4.001,1.064z"/>
		<path fill="#51C8EC" d="M7.757,7.917c-0.004-1.015,0.002-2.03-0.003-3.045c0.817,0.008,1.634,0,2.451,0.004
			c0.001,0.87,0.001,1.738,0,2.607C9.37,7.318,8.488,7.489,7.757,7.917z"/>
		<path fill="#51C8EC" d="M18.593,12.323c0.004-2.482,0-4.965,0.004-7.447c0.814,0.001,1.631-0.003,2.446,0.002
			c0.001,3.705,0.001,7.41,0,11.114c-0.003,0.495-0.218,0.982-0.577,1.32c-0.34,0.322-0.806,0.51-1.273,0.509
			c-2.858-0.004-5.718-0.003-8.576-0.003c0.318-0.815,0.637-1.633,0.957-2.447c1.324-0.002,2.646,0,3.972-0.001
			c0.115-0.808,0.512-1.575,1.113-2.126C17.188,12.748,17.876,12.424,18.593,12.323z"/>
		<path fill="#51C8EC" d="M1.747,10.113C1.906,9.464,2.532,8.97,3.201,8.966c0.742-0.001,1.485-0.004,2.227,0.002
			C5.737,8.965,6.002,9.25,5.995,9.555c0.003,1.228,0,2.457,0.001,3.685c0.635-1.005,1.278-2.005,1.912-3.01
			c0.101-0.163,0.202-0.326,0.335-0.465c0.399-0.431,1.02-0.65,1.603-0.56c0.675,0.118,1.249,0.666,1.39,1.336
			c0.107,0.395,0.028,0.813-0.135,1.181c-0.767,1.961-1.536,3.919-2.301,5.88c-0.158,0.36-0.182,0.782-0.018,1.146
			c0.207,0.529,0.761,0.875,1.323,0.881c1.891,0.002,3.783-0.002,5.674,0.002c0.098,0.957-0.168,1.946-0.745,2.72
			c-1.106,1.497-2.214,2.991-3.325,4.485c-0.144,0.207-0.396,0.32-0.646,0.307c-3.136-0.002-6.272,0.001-9.408-0.002
			c-0.335,0.01-0.635-0.295-0.627-0.628c0.001-1.188-0.011-2.375,0.026-3.562c0.096-1.956,0.742-3.881,1.835-5.509
			c-0.645-0.148-1.154-0.739-1.195-1.401c-0.042-0.514,0.198-1.032,0.601-1.348c-0.417-0.159-0.773-0.482-0.931-0.903
			c-0.201-0.479-0.12-1.047,0.178-1.468C1.724,12.055,2,11.867,2.299,11.751C1.816,11.376,1.572,10.707,1.747,10.113z"/>
	</g>
	<circle fill="#51C8EC" cx="14.391" cy="8.965" r="2.418"/>
</g>
</svg>
