<?xml version="1.0" encoding="utf-8"?>
<!-- Generator: Adobe Illustrator 16.0.4, SVG Export Plug-In . SVG Version: 6.00 Build 0)  -->
<!DOCTYPE svg PUBLIC "-//W3C//DTD SVG 1.1//EN" "http://www.w3.org/Graphics/SVG/1.1/DTD/svg11.dtd">
<svg version="1.1" id="Layer_1" xmlns="http://www.w3.org/2000/svg" xmlns:xlink="http://www.w3.org/1999/xlink" x="0px" y="0px"
	 width="28.35px" height="28.35px" viewBox="0 0 28.35 28.35" enable-background="new 0 0 28.35 28.35" xml:space="preserve">
<path fill="#EE2248" d="M12.551,26.774l-0.412-1.729c-0.083-0.286-0.329-0.492-0.658-0.492c-0.741,0-1.399-0.495-1.564-1.234
	l-1.11-4.442h2.632v-1.071c3.085,0.494,8.228,1.811,11.765,5.185c0.042,0.615,0.577,1.11,1.234,1.029
	c0.576-0.084,0.988-0.577,0.988-1.152v-6.541c1.439-0.534,2.469-1.934,2.469-3.537c0-1.606-1.029-3.004-2.469-3.539v-6.5
	c0-0.576-0.412-1.111-0.988-1.153c-0.657-0.082-1.192,0.413-1.234,1.029c-3.579,3.373-8.68,4.689-11.765,5.183v-1.07H4.16
	c-1.276,0-2.346,1.028-2.346,2.346v1.356H1.032c-0.453,0-0.864,0.372-0.864,0.864v3.21c0,0.453,0.37,0.864,0.864,0.864h0.782v1.152
	c0,1.273,1.028,2.345,2.346,2.345h0.863l1.975,8.062c0.042,0.245,0.247,0.411,0.493,0.411h0.288h3.086h1.274
	C12.428,27.35,12.633,27.062,12.551,26.774z"/>
</svg>
