<?xml version="1.0" encoding="utf-8"?>
<!-- Generator: Adobe Illustrator 16.0.4, SVG Export Plug-In . SVG Version: 6.00 Build 0)  -->
<!DOCTYPE svg PUBLIC "-//W3C//DTD SVG 1.1//EN" "http://www.w3.org/Graphics/SVG/1.1/DTD/svg11.dtd">
<svg version="1.1" id="Layer_1" xmlns="http://www.w3.org/2000/svg" xmlns:xlink="http://www.w3.org/1999/xlink" x="0px" y="0px"
	 width="28.35px" height="28.35px" viewBox="0 0 28.35 28.35" enable-background="new 0 0 28.35 28.35" xml:space="preserve">
<g>
	<path fill="#D4B3D5" d="M25.767,14.148c0.131,0.13,0.195,0.289,0.195,0.476v12.779c0,0.186-0.064,0.346-0.195,0.477
		c-0.131,0.13-0.29,0.195-0.477,0.195H2.676c-0.186,0-0.345-0.065-0.476-0.195c-0.131-0.131-0.196-0.291-0.196-0.477V9.776
		c0-0.224,0.084-0.401,0.252-0.533l11.293-9.051c0.131-0.092,0.275-0.14,0.435-0.14c0.158,0,0.294,0.048,0.406,0.14l11.321,9.051
		c0.149,0.131,0.233,0.291,0.251,0.476c0.02,0.188-0.031,0.351-0.153,0.491c-0.122,0.141-0.275,0.224-0.463,0.252
		c-0.187,0.028-0.354-0.022-0.503-0.154L13.97,1.594L3.349,10.112v16.617h12.61v-6.921h-3.951v5.352
		c0,0.187-0.066,0.346-0.197,0.476c-0.131,0.132-0.289,0.197-0.477,0.197c-0.187,0-0.349-0.065-0.49-0.197
		c-0.14-0.13-0.21-0.289-0.21-0.476v-6.025c0-0.186,0.07-0.345,0.21-0.476c0.141-0.131,0.303-0.196,0.49-0.196h5.297
		c0.187,0,0.351,0.065,0.489,0.196c0.142,0.131,0.211,0.29,0.211,0.476v7.595h7.258V14.624c0-0.187,0.07-0.346,0.209-0.476
		c0.142-0.131,0.305-0.197,0.491-0.197S25.636,14.017,25.767,14.148z"/>
</g>
</svg>
