<?xml version="1.0" encoding="utf-8"?>
<!-- Generator: Adobe Illustrator 16.0.4, SVG Export Plug-In . SVG Version: 6.00 Build 0)  -->
<!DOCTYPE svg PUBLIC "-//W3C//DTD SVG 1.1//EN" "http://www.w3.org/Graphics/SVG/1.1/DTD/svg11.dtd">
<svg version="1.1" id="Layer_1" xmlns="http://www.w3.org/2000/svg" xmlns:xlink="http://www.w3.org/1999/xlink" x="0px" y="0px"
	 width="28.35px" height="28.35px" viewBox="0 0 28.35 28.35" enable-background="new 0 0 28.35 28.35" xml:space="preserve">
<g>
	<path fill="#F3BA35" d="M23.477,12.386c-2.682,0.003-4.863,2.201-4.859,4.899c0,1.477,0.736,3.157,2.185,4.998
		c1.033,1.313,2.058,2.228,2.1,2.267c0.336,0.298,0.841,0.296,1.177-0.002c0.042-0.039,1.065-0.953,2.095-2.269
		c1.107-1.413,2.177-3.216,2.177-5.002C28.346,14.583,26.183,12.386,23.477,12.386z M23.488,22.662
		c-1.211-1.229-3.101-3.538-3.103-5.377c-0.001-1.725,1.385-3.128,3.094-3.129c1.716,0,3.1,1.398,3.1,3.124
		C26.581,19.118,24.694,21.434,23.488,22.662L23.488,22.662z"/>
	<path fill="#F3BA35" d="M23.481,15.925c-1.168,0-1.775,1.428-0.938,2.267c0.666,0.665,1.805,0.446,2.164-0.432
		C25.07,16.893,24.428,15.925,23.481,15.925z"/>
	<path fill="#F3BA35" d="M4.319,12.163c0.336,0.297,0.84,0.298,1.176,0c0.044-0.038,1.066-0.953,2.099-2.268
		c1.446-1.843,2.179-3.523,2.179-4.999C9.772,2.198,7.591,0,4.907,0C2.224,0,0.041,2.198,0.041,4.896
		c0,1.476,0.734,3.156,2.18,4.999C3.251,11.21,4.276,12.125,4.319,12.163z M4.907,1.771c1.706,0,3.097,1.402,3.097,3.125
		c0,1.84-1.891,4.153-3.098,5.381C3.699,9.052,1.812,6.741,1.812,4.896C1.812,3.172,3.201,1.771,4.907,1.771z"/>
	<circle fill="#F3BA35" cx="4.907" cy="4.866" r="1.327"/>
	<path fill="#F3BA35" d="M24.818,26.982c0,1.208-1.502,1.794-2.314,0.886H4.022c-2.195,0-3.981-1.786-3.981-3.981
		s1.786-3.979,3.981-3.979h8.875c1.204,0,2.183-0.981,2.183-2.184c0-1.206-0.979-2.186-2.183-2.186H5.896
		c-0.819,0.906-2.315,0.328-2.315-0.884c-0.003-1.214,1.49-1.79,2.315-0.885h7.001c2.18,0,3.954,1.773,3.954,3.954
		c0,2.18-1.774,3.953-3.954,3.953H4.022c-1.221,0-2.21,0.989-2.21,2.21s0.989,2.212,2.21,2.212h18.481
		C23.326,25.19,24.816,25.776,24.818,26.982z"/>
</g>
</svg>
