<?xml version="1.0" encoding="utf-8"?>
<!-- Generator: Adobe Illustrator 16.0.4, SVG Export Plug-In . SVG Version: 6.00 Build 0)  -->
<!DOCTYPE svg PUBLIC "-//W3C//DTD SVG 1.1//EN" "http://www.w3.org/Graphics/SVG/1.1/DTD/svg11.dtd">
<svg version="1.1" id="mdi-slot-machine" xmlns="http://www.w3.org/2000/svg" xmlns:xlink="http://www.w3.org/1999/xlink" x="0px"
	 y="0px" width="24px" height="24px" viewBox="0 0 24 24" enable-background="new 0 0 24 24" xml:space="preserve">
<rect x="3.087" y="6.175" fill="#FFFFFF" width="13.569" height="10.351"/>
<path fill="#EFFF00" d="M21.875,2c-1.147,0-2.088,0.939-2.088,2.087c0,0.731,0.418,1.461,1.044,1.775v14.839H17.7v-2.088
	c0.626,0,1.044-0.418,1.044-1.044V5.131c0-0.626-0.418-1.044-1.044-1.044h-3.966C12.898,2.835,11.438,2,9.872,2
	C8.306,2,6.845,2.835,6.01,4.087H2.044C1.417,4.087,1,4.505,1,5.131v12.438c0,0.626,0.417,1.044,1.044,1.044v4.262H17.7v-0.087
	h3.131c1.147,0,2.088-0.939,2.088-2.087V5.862c0.626-0.313,1.044-1.044,1.044-1.775C23.963,2.939,23.022,2,21.875,2z M10.365,16.525
	H9.458v-1.169h0.805c0.038,0,0.07,0,0.102,0V16.525z M11.523,13.464c-0.164,0.207-0.359,0.344-0.592,0.405
	c-0.234,0.066-0.529,0.103-0.877,0.103H9.448c-0.204,0-0.324-0.011-0.375-0.036c-0.043-0.021-0.075-0.06-0.096-0.113
	c-0.017-0.042-0.024-0.192-0.027-0.444v-1.804h1.076c0.472,0,0.822,0.044,1.051,0.131c0.229,0.088,0.405,0.218,0.518,0.385
	c0.114,0.172,0.173,0.381,0.173,0.625C11.766,13.008,11.682,13.255,11.523,13.464z M8.949,8.324h0.912
	c0.53,0,0.901,0.034,1.108,0.098c0.206,0.066,0.364,0.178,0.472,0.333c0.109,0.155,0.164,0.342,0.164,0.562
	c0,0.209-0.055,0.395-0.169,0.558c-0.119,0.159-0.287,0.278-0.518,0.358c-0.227,0.079-0.582,0.121-1.056,0.121H8.949V8.324z
	 M10.365,6.175v0.86H9.458v-0.86H10.365z M3.087,6.175h4.965v0.86h-2.15v1.151h0.327c0.221,0,0.367,0.022,0.443,0.059
	c0.083,0.041,0.137,0.096,0.166,0.163c0.034,0.066,0.048,0.224,0.048,0.47v4.642c0,0.245-0.014,0.399-0.048,0.47
	c-0.029,0.07-0.083,0.121-0.166,0.159c-0.076,0.04-0.222,0.058-0.443,0.058H5.902v1.15h2.15v1.169H3.087V6.175z M16.656,16.525
	h-4.878v-1.286c0.233-0.049,0.445-0.104,0.618-0.177c0.484-0.194,0.865-0.476,1.13-0.849c0.266-0.37,0.402-0.773,0.402-1.218
	c0-0.369-0.088-0.703-0.262-1.004c-0.178-0.302-0.415-0.534-0.711-0.703c-0.207-0.119-0.504-0.229-0.896-0.327
	c0.364-0.124,0.657-0.279,0.877-0.469c0.221-0.188,0.393-0.408,0.509-0.653c0.119-0.246,0.175-0.505,0.175-0.781
	c0-0.378-0.109-0.725-0.329-1.042c-0.227-0.315-0.542-0.558-0.958-0.726c-0.16-0.065-0.35-0.116-0.555-0.156v-0.96h4.878V16.525z"/>
</svg>
