<?xml version="1.0" encoding="utf-8"?>
<!-- Generator: Adobe Illustrator 16.0.4, SVG Export Plug-In . SVG Version: 6.00 Build 0)  -->
<!DOCTYPE svg PUBLIC "-//W3C//DTD SVG 1.1//EN" "http://www.w3.org/Graphics/SVG/1.1/DTD/svg11.dtd">
<svg version="1.1" id="Layer_1" xmlns="http://www.w3.org/2000/svg" xmlns:xlink="http://www.w3.org/1999/xlink" x="0px" y="0px"
	 width="28.35px" height="28.35px" viewBox="0 0 28.35 28.35" enable-background="new 0 0 28.35 28.35" xml:space="preserve">
<path fill="#F05040" d="M14.031,26.979c0.155,0.152,0.232,0.344,0.232,0.57c0,0.225-0.077,0.415-0.232,0.569
	c-0.153,0.153-0.342,0.23-0.568,0.23H6.071c-0.965,0-1.846-0.235-2.647-0.708c-0.8-0.473-1.437-1.11-1.91-1.908
	c-0.472-0.803-0.708-1.684-0.708-2.649V5.284c0-0.945,0.235-1.822,0.708-2.633c0.473-0.811,1.11-1.453,1.91-1.925
	c0.802-0.472,1.683-0.708,2.647-0.708h7.516c0.226,0,0.415,0.077,0.568,0.231c0.155,0.154,0.232,0.344,0.232,0.57
	c0,0.227-0.077,0.421-0.232,0.585c-0.153,0.165-0.342,0.247-0.568,0.247H6.071c-0.656,0-1.267,0.165-1.831,0.493
	C3.674,2.471,3.228,2.912,2.9,3.468C2.571,4.021,2.406,4.626,2.406,5.284v17.799c0,0.658,0.165,1.269,0.494,1.832
	c0.328,0.566,0.774,1.013,1.34,1.34c0.564,0.328,1.175,0.493,1.831,0.493h7.393C13.689,26.748,13.878,26.825,14.031,26.979z
	 M27.074,14.184c0,0.226-0.082,0.42-0.246,0.585l-5.174,5.174c-0.144,0.144-0.334,0.215-0.57,0.215
	c-0.235,0-0.425-0.076-0.568-0.231c-0.145-0.153-0.217-0.342-0.217-0.569c0-0.225,0.072-0.42,0.217-0.585l3.786-3.757H7.828
	c-0.229,0-0.421-0.083-0.585-0.246c-0.167-0.165-0.248-0.359-0.248-0.585s0.081-0.415,0.248-0.571
	c0.164-0.154,0.356-0.23,0.585-0.23h16.474l-3.786-3.789c-0.145-0.164-0.217-0.358-0.217-0.584c0-0.226,0.076-0.415,0.231-0.569
	c0.153-0.155,0.344-0.232,0.57-0.232c0.226,0,0.41,0.083,0.554,0.247l5.174,5.172C26.992,13.773,27.074,13.958,27.074,14.184z"/>
</svg>
