<?xml version="1.0" encoding="utf-8"?>
<!-- Generator: Adobe Illustrator 16.0.4, SVG Export Plug-In . SVG Version: 6.00 Build 0)  -->
<!DOCTYPE svg PUBLIC "-//W3C//DTD SVG 1.1//EN" "http://www.w3.org/Graphics/SVG/1.1/DTD/svg11.dtd">
<svg version="1.1" id="Layer_1" xmlns="http://www.w3.org/2000/svg" xmlns:xlink="http://www.w3.org/1999/xlink" x="0px" y="0px"
	 width="28.35px" height="28.35px" viewBox="0 0 28.35 28.35" enable-background="new 0 0 28.35 28.35" xml:space="preserve">
<g>
	<path fill="#78C143" d="M6.56,27.555c0,0.441-0.342,0.795-0.765,0.795H2.694c-0.424,0-0.766-0.354-0.766-0.795v-7.211
		c0-0.441,0.342-0.795,0.766-0.795h3.101c0.423,0,0.765,0.354,0.765,0.795V27.555z"/>
	<path fill="#78C143" d="M13.341,27.555c0,0.441-0.343,0.795-0.765,0.795H9.474c-0.422,0-0.766-0.354-0.766-0.795V16.779
		c0-0.438,0.343-0.793,0.766-0.793h3.103c0.421,0,0.765,0.355,0.765,0.793V27.555z"/>
	<path fill="#78C143" d="M20.242,27.555c0,0.441-0.34,0.795-0.762,0.795h-3.104c-0.422,0-0.764-0.354-0.764-0.795V14.391
		c0-0.44,0.342-0.795,0.764-0.795h3.104c0.422,0,0.762,0.355,0.762,0.795V27.555z"/>
	<path fill="#78C143" d="M27.025,27.555c0,0.441-0.342,0.795-0.766,0.795h-3.102c-0.422,0-0.764-0.354-0.764-0.795V7.966
		c0-0.439,0.342-0.795,0.764-0.795h3.102c0.424,0,0.766,0.356,0.766,0.795V27.555z"/>
	<path fill="#78C143" d="M18.59,9.465l3.1-8.908L12.657,1.9l1.803,2.3c-1.713,1.334-5.53,3.803-12.69,6.275
		C0.793,10.475,0,11.296,0,12.31c0,1.016,0.793,1.838,1.771,1.838c0.278,0,0.54-0.065,0.773-0.185
		c8.289-2.87,12.411-5.733,14.031-7.066L18.59,9.465z"/>
</g>
</svg>
