<?xml version="1.0" encoding="utf-8"?>
<!-- Generator: Adobe Illustrator 16.0.4, SVG Export Plug-In . SVG Version: 6.00 Build 0)  -->
<!DOCTYPE svg PUBLIC "-//W3C//DTD SVG 1.1//EN" "http://www.w3.org/Graphics/SVG/1.1/DTD/svg11.dtd">
<svg version="1.1" id="Layer_1" xmlns="http://www.w3.org/2000/svg" xmlns:xlink="http://www.w3.org/1999/xlink" x="0px" y="0px"
	 width="28.35px" height="28.35px" viewBox="0 0 28.35 28.35" enable-background="new 0 0 28.35 28.35" xml:space="preserve">
<g>
	<circle fill="#F1E915" cx="14.146" cy="3.487" r="3.46"/>
	<path fill="#F1E915" d="M24.524,22.309c0.002-0.527,0.002-1.054-0.001-1.584c-0.007-1.126-0.483-2.24-1.291-3.026
		c-0.591-0.586-1.354-0.989-2.168-1.155c0-1.47,0.002-2.938,0-4.408c0.006-0.855-0.325-1.707-0.906-2.335
		c-0.642-0.712-1.595-1.13-2.554-1.128c-0.462,0.008-0.922-0.004-1.381,0.004c-0.004,0.431-4.153,0.393-4.15,0.001
		c-0.499-0.002-0.999-0.008-1.499,0c-0.907,0.02-1.794,0.428-2.412,1.091c-0.597,0.632-0.942,1.498-0.936,2.369
		c-0.001,1.469,0.003,2.935,0,4.405c-0.99,0.199-1.9,0.76-2.523,1.553c-0.604,0.755-0.938,1.72-0.934,2.686
		c-0.005,0.516,0,1.031-0.002,1.545c-1.251,0.392-2.161,1.561-2.161,2.941c0,1.702,1.379,3.082,3.082,3.082
		c1.702,0,3.082-1.38,3.082-3.082c0-1.421-0.962-2.616-2.27-2.974c0-0.521-0.004-1.043,0.001-1.565
		c0.004-0.587,0.227-1.168,0.606-1.614c0.481-0.58,1.227-0.937,1.984-0.926c1.73-0.003,3.46,0,5.189-0.002
		c0,1.374,0.001,2.75,0,4.125c-1.28,0.373-2.215,1.555-2.215,2.956c0,1.702,1.38,3.082,3.081,3.082s3.081-1.38,3.081-3.082
		c0-1.401-0.937-2.583-2.216-2.959c0-1.374,0-2.748,0-4.122c1.748,0.002,3.495,0,5.244,0.001c0.544,0.008,1.084,0.199,1.516,0.529
		c0.623,0.468,1.016,1.23,1.021,2.011c0.004,0.527,0.002,1.056,0.002,1.584c-1.282,0.373-2.217,1.555-2.217,2.956
		c0,1.702,1.381,3.082,3.082,3.082c1.702,0,3.081-1.38,3.081-3.082C26.741,23.866,25.805,22.685,24.524,22.309z"/>
</g>
</svg>
