<?xml version="1.0" encoding="utf-8"?>
<!-- Generator: Adobe Illustrator 16.0.4, SVG Export Plug-In . SVG Version: 6.00 Build 0)  -->
<!DOCTYPE svg PUBLIC "-//W3C//DTD SVG 1.1//EN" "http://www.w3.org/Graphics/SVG/1.1/DTD/svg11.dtd">
<svg version="1.1" id="Layer_1" xmlns="http://www.w3.org/2000/svg" xmlns:xlink="http://www.w3.org/1999/xlink" x="0px" y="0px"
	 width="20px" height="20px" viewBox="0 0 20 20" enable-background="new 0 0 20 20" xml:space="preserve">
<g>
	<g id="Layer_x0020_1">
		<g id="_1421344023328">
			<path fill="#F7931A" d="M19.698,12.419c-1.335,5.357-6.761,8.618-12.119,7.282C2.224,18.365-1.037,12.938,0.3,7.582
				c1.335-5.358,6.761-8.618,12.117-7.283C17.774,1.635,21.034,7.062,19.698,12.419L19.698,12.419L19.698,12.419z"/>
			<path fill="#FFFFFF" d="M14.408,8.575c0.199-1.331-0.814-2.046-2.199-2.523l0.449-1.803l-1.098-0.273l-0.438,1.755
				c-0.288-0.072-0.584-0.14-0.878-0.207l0.44-1.767L9.588,3.484l-0.45,1.802C8.9,5.231,8.666,5.178,8.438,5.121l0.001-0.005
				L6.926,4.738L6.634,5.91c0,0,0.814,0.187,0.797,0.198c0.444,0.111,0.525,0.405,0.511,0.638L7.431,8.8
				c0.031,0.008,0.07,0.019,0.114,0.037C7.508,8.827,7.469,8.817,7.429,8.808l-0.718,2.877c-0.054,0.135-0.192,0.337-0.502,0.261
				c0.011,0.016-0.798-0.199-0.798-0.199l-0.545,1.256l1.428,0.356c0.266,0.066,0.526,0.136,0.782,0.202l-0.454,1.822l1.096,0.273
				l0.45-1.803c0.299,0.08,0.59,0.156,0.875,0.227l-0.448,1.795l1.097,0.273l0.454-1.82c1.872,0.355,3.278,0.212,3.87-1.48
				c0.478-1.363-0.023-2.148-1.008-2.661C13.725,10.021,14.266,9.55,14.408,8.575L14.408,8.575L14.408,8.575z M11.901,12.091
				c-0.339,1.362-2.633,0.626-3.377,0.441l0.603-2.415C9.871,10.303,12.256,10.67,11.901,12.091L11.901,12.091z M12.24,8.556
				c-0.309,1.239-2.218,0.609-2.838,0.455L9.949,6.82C10.568,6.975,12.562,7.263,12.24,8.556L12.24,8.556z"/>
		</g>
	</g>
</g>
</svg>
