<?xml version="1.0" encoding="utf-8"?>
<!-- Generator: Adobe Illustrator 16.0.4, SVG Export Plug-In . SVG Version: 6.00 Build 0)  -->
<!DOCTYPE svg PUBLIC "-//W3C//DTD SVG 1.1//EN" "http://www.w3.org/Graphics/SVG/1.1/DTD/svg11.dtd">
<svg version="1.1" id="Layer_1" xmlns="http://www.w3.org/2000/svg" xmlns:xlink="http://www.w3.org/1999/xlink" x="0px" y="0px"
	 width="20px" height="20px" viewBox="0 0 20 20" enable-background="new 0 0 20 20" xml:space="preserve">
<circle fill="#158CFF" cx="10" cy="10" r="10"/>
<title>cosmos-atom-logo</title>
<title>wrapped-bitcoin-wbtc</title>
<g>
	<title>d</title>
	<g id="Layer_2">
		<g id="Layer_1-2">
			<path fill="#FFFFFF" d="M12.034,4.011H6.666L6.221,6.499l4.845,0.004c2.388,0,3.09,0.869,3.07,2.304
				c-0.012,0.735-0.331,1.981-0.469,2.386c-0.367,1.076-1.122,2.305-3.955,2.301l-4.71-0.003l-0.444,2.49h5.357
				c1.891,0,2.691-0.221,3.545-0.613c1.887-0.875,3.009-2.734,3.46-5.165C17.587,6.584,16.756,4.011,12.034,4.011"/>
			<path fill="#FFFFFF" d="M4.35,8.748c-1.407,0-1.608,0.916-1.74,1.47c-0.175,0.725-0.233,1.021-0.233,1.021h5.497
				c1.408,0,1.609-0.917,1.739-1.472c0.176-0.723,0.234-1.019,0.234-1.019H4.35z"/>
		</g>
	</g>
</g>
</svg>
