<?xml version="1.0" encoding="utf-8"?>
<!-- Generator: Adobe Illustrator 16.0.4, SVG Export Plug-In . SVG Version: 6.00 Build 0)  -->
<!DOCTYPE svg PUBLIC "-//W3C//DTD SVG 1.1//EN" "http://www.w3.org/Graphics/SVG/1.1/DTD/svg11.dtd">
<svg version="1.1" id="Layer_1" xmlns="http://www.w3.org/2000/svg" xmlns:xlink="http://www.w3.org/1999/xlink" x="0px" y="0px"
	 width="20px" height="20px" viewBox="0 0 20 20" enable-background="new 0 0 20 20" xml:space="preserve">
<circle fill="#345D9D" cx="10" cy="10" r="10"/>
<g>
	<title>litecoin-ltc-logo</title>
	<path fill="#FFFFFF" d="M9.826,9.558l-1.041,3.511h5.569c0.155-0.006,0.285,0.116,0.291,0.271l0,0v0.092l-0.484,1.671
		c-0.045,0.163-0.195,0.273-0.363,0.267H5.273l1.429-4.867l-1.598,0.484l0.363-1.113l1.598-0.484l2.01-6.828
		c0.045-0.162,0.195-0.271,0.363-0.267h2.155c0.154-0.005,0.285,0.116,0.29,0.271l0,0v0.093L10.189,8.42l1.598-0.484l-0.339,1.162
		L9.826,9.558z"/>
</g>
</svg>
