<?xml version="1.0" encoding="utf-8"?>
<!-- Generator: Adobe Illustrator 16.0.4, SVG Export Plug-In . SVG Version: 6.00 Build 0)  -->
<!DOCTYPE svg PUBLIC "-//W3C//DTD SVG 1.1//EN" "http://www.w3.org/Graphics/SVG/1.1/DTD/svg11.dtd">
<svg version="1.1" id="Layer_1" xmlns="http://www.w3.org/2000/svg" xmlns:xlink="http://www.w3.org/1999/xlink" x="0px" y="0px"
	 width="20px" height="20px" viewBox="0 0 20 20" enable-background="new 0 0 20 20" xml:space="preserve">
<circle fill="#00A4FF" cx="10" cy="10" r="10"/>
<path fill="#FFFFFF" d="M10.565,4.066C9.71,4.568,9.205,5.474,9.205,6.43c0,0.502,0.202,1.007,0.454,1.459
	c0.202,0.402,0.3,1.106-0.403,1.459c-0.502,0.3-1.159,0.1-1.459-0.403c-0.3-0.403-0.653-0.807-1.107-1.106
	c-0.854-0.502-1.862-0.502-2.717,0s-1.359,1.41-1.359,2.366c0,0.956,0.502,1.862,1.359,2.366c0.854,0.502,1.862,0.502,2.717,0
	c0.454-0.252,0.806-0.652,1.056-1.107c0.201-0.352,0.755-0.805,1.459-0.402c0.502,0.301,0.653,0.957,0.403,1.459
	c-0.252,0.453-0.403,0.957-0.403,1.459c0,0.957,0.502,1.863,1.36,2.363c0.855,0.504,1.863,0.504,2.716,0
	c0.855-0.5,1.361-1.408,1.361-2.363s-0.504-1.861-1.361-2.365c-0.453-0.252-0.957-0.352-1.51-0.352
	c-0.453,0-1.056-0.301-1.056-1.057c0-0.604,0.454-1.056,1.056-1.056c0.502,0,1.057-0.101,1.51-0.353
	c0.855-0.502,1.361-1.408,1.361-2.364c0-0.955-0.504-1.862-1.361-2.364c-0.402-0.252-0.904-0.353-1.358-0.353
	C11.472,3.713,10.965,3.816,10.565,4.066"/>
</svg>
