<?xml version="1.0" encoding="utf-8"?>
<!-- Generator: Adobe Illustrator 16.0.4, SVG Export Plug-In . SVG Version: 6.00 Build 0)  -->
<!DOCTYPE svg PUBLIC "-//W3C//DTD SVG 1.1//EN" "http://www.w3.org/Graphics/SVG/1.1/DTD/svg11.dtd">
<svg version="1.1" id="Layer_1" xmlns="http://www.w3.org/2000/svg" xmlns:xlink="http://www.w3.org/1999/xlink" x="0px" y="0px"
	 width="20px" height="20px" viewBox="0 0 20 20" enable-background="new 0 0 20 20" xml:space="preserve">
<circle fill="#50AF95" cx="10" cy="10" r="10"/>
<g>
	<title>tether-usdt-logo</title>
	<path fill="#FFFFFF" d="M11.265,10.657L11.265,10.657c-0.07,0.005-0.436,0.026-1.25,0.026c-0.648,0-1.108-0.019-1.271-0.026l0,0
		c-2.505-0.11-4.374-0.546-4.374-1.068S6.239,8.631,8.744,8.52v1.703c0.164,0.012,0.633,0.039,1.281,0.039
		c0.777,0,1.167-0.031,1.237-0.038V8.521c2.5,0.111,4.365,0.548,4.365,1.068s-1.865,0.957-4.365,1.067l0,0L11.265,10.657z
		 M11.265,8.344V6.82h3.488V4.496H5.256V6.82h3.488v1.523C5.909,8.475,3.777,9.035,3.777,9.709c0,0.672,2.132,1.233,4.967,1.364
		v4.885h2.521v-4.887c2.828-0.13,4.956-0.69,4.956-1.363S14.095,8.475,11.265,8.344L11.265,8.344L11.265,8.344z M11.265,8.344
		L11.265,8.344z"/>
</g>
</svg>
