<?xml version="1.0" encoding="utf-8"?>
<!-- Generator: Adobe Illustrator 16.0.4, SVG Export Plug-In . SVG Version: 6.00 Build 0)  -->
<!DOCTYPE svg PUBLIC "-//W3C//DTD SVG 1.1//EN" "http://www.w3.org/Graphics/SVG/1.1/DTD/svg11.dtd">
<svg version="1.1" id="Layer_1" xmlns="http://www.w3.org/2000/svg" xmlns:xlink="http://www.w3.org/1999/xlink" x="0px" y="0px"
	 width="20px" height="20px" viewBox="0 0 20 20" enable-background="new 0 0 20 20" xml:space="preserve">
<circle cx="10" cy="10" r="10"/>
<circle fill="#FFEE2A" cx="10" cy="10" r="7.417"/>
<title>cosmos-atom-logo</title>
<title>wrapped-bitcoin-wbtc</title>
<g id="Layer_1-2">
	<path d="M9.664,12.792h4.333v2.166H11.44v1.834H9.217v-1.777H6.55c0-0.723-0.109-1.442,0.057-2.109
		c0.058-0.333,0.443-0.666,0.725-1c0.833-1,1.666-2,2.557-3c0.333-0.391,0.666-0.724,1.057-1.166H6.777V5.572h2.443V3.739h2.167
		v1.775h2.666c0,0.724,0.11,1.443-0.057,2.11c-0.057,0.333-0.443,0.667-0.723,1c-0.834,1-1.668,2-2.558,3
		C10.384,12.015,10.05,12.401,9.664,12.792z"/>
</g>
</svg>
