<?xml version="1.0" encoding="utf-8"?>
<!-- Generator: Adobe Illustrator 16.0.4, SVG Export Plug-In . SVG Version: 6.00 Build 0)  -->
<!DOCTYPE svg PUBLIC "-//W3C//DTD SVG 1.1//EN" "http://www.w3.org/Graphics/SVG/1.1/DTD/svg11.dtd">
<svg version="1.1" id="Layer_1" xmlns="http://www.w3.org/2000/svg" xmlns:xlink="http://www.w3.org/1999/xlink" x="0px" y="0px"
	 width="20px" height="20px" viewBox="0 0 20 20" enable-background="new 0 0 20 20" xml:space="preserve">
<path fill="#FFFFFF" d="M20,9.999c0,5.522-4.476,9.999-9.998,9.999s-9.999-4.477-9.999-9.999C0.003,4.477,4.479,0,10.002,0
	S20,4.477,20,9.999z"/>
<path id="_149931032" fill="#F26822" d="M10.002,0C4.481,0-0.003,4.483,0.004,9.998c0.001,1.104,0.177,2.166,0.507,3.158h2.992
	V4.745l6.499,6.499L16.5,4.745v8.411h2.992c0.331-0.992,0.506-2.054,0.508-3.157c0.01-5.521-4.477-9.998-9.998-9.998V0z"/>
<path id="_149931160" fill="#4D4D4D" d="M8.507,12.737L5.671,9.901v5.293H3.503l-2.046,0.001C3.212,18.074,6.384,20,10.002,20
	s6.79-1.926,8.545-4.806h-4.215V9.901l-2.836,2.836l-1.495,1.494L8.507,12.737L8.507,12.737L8.507,12.737z"/>
</svg>
