<?xml version="1.0" encoding="utf-8"?>
<!-- Generator: Adobe Illustrator 16.0.4, SVG Export Plug-In . SVG Version: 6.00 Build 0)  -->
<!DOCTYPE svg PUBLIC "-//W3C//DTD SVG 1.1//EN" "http://www.w3.org/Graphics/SVG/1.1/DTD/svg11.dtd">
<svg version="1.1" id="Layer_1" xmlns="http://www.w3.org/2000/svg" xmlns:xlink="http://www.w3.org/1999/xlink" x="0px" y="0px"
	 width="20px" height="20px" viewBox="0 0 20 20" enable-background="new 0 0 20 20" xml:space="preserve">
<circle fill="#002FE9" cx="10" cy="10" r="10"/>
<g>
	<path fill="#FFFFFF" d="M3.454,7.783c-1.146,0-2.077,0.93-2.077,2.077s0.931,2.077,2.077,2.077c1.147,0,2.077-0.93,2.077-2.077
		S4.601,7.783,3.454,7.783z M3.454,11.112c-0.691,0-1.252-0.561-1.252-1.252s0.561-1.252,1.252-1.252
		c0.692,0,1.252,0.561,1.252,1.252S4.146,11.112,3.454,11.112z"/>
	<path fill="#FFFFFF" d="M7.843,7.783c-1.146,0-2.076,0.93-2.076,2.077v1.854H5.77c0,0.104,0.183,0.188,0.409,0.188
		c0.225,0,0.408-0.084,0.408-0.188h0.005V9.86l0,0l0,0c0-0.691,0.561-1.252,1.251-1.252c0.692,0,1.253,0.561,1.253,1.252l0,0l0,0
		v1.854h0.005c0,0.104,0.183,0.188,0.408,0.188c0.225,0,0.408-0.084,0.408-0.188H9.92V9.86C9.92,8.713,8.991,7.783,7.843,7.783z"/>
	<path fill="#FFFFFF" d="M12.319,7.783c-1.147,0-2.076,0.93-2.076,2.077v1.854h0.003c0,0.104,0.182,0.188,0.408,0.188
		c0.226,0,0.408-0.084,0.408-0.188h0.004V9.86l0,0l0,0c0-0.691,0.562-1.252,1.253-1.252s1.252,0.561,1.252,1.252l0,0l0,0v1.854
		h0.005c0,0.104,0.184,0.188,0.409,0.188c0.225,0,0.407-0.084,0.407-0.188h0.004V9.86C14.396,8.713,13.466,7.783,12.319,7.783z"/>
	<path fill="#FFFFFF" d="M15.949,9.493c-0.212,0-0.384,0.172-0.384,0.385s0.172,0.385,0.384,0.385c0.018,0,0.034-0.002,0.05-0.004
		h2.032c0.327,0,0.591-0.264,0.591-0.59c0-0.03-0.003-0.06-0.006-0.089c-0.003-0.016-0.006-0.031-0.009-0.046
		c-0.002-0.008-0.005-0.015-0.006-0.023c-0.214-0.886-1.012-1.545-1.963-1.545c-1.114,0-2.019,0.904-2.019,2.019
		c0,1.114,0.904,2.018,2.019,2.018c0.68,0,1.281-0.335,1.646-0.851l0.002-0.005c0.048-0.064,0.075-0.146,0.075-0.232
		c0-0.219-0.179-0.397-0.401-0.397c-0.139,0-0.262,0.069-0.334,0.175l-0.007,0.011c-0.22,0.302-0.579,0.499-0.981,0.499
		c-0.673,0-1.218-0.545-1.218-1.217c0-0.672,0.545-1.218,1.218-1.218c0.498,0,0.927,0.3,1.114,0.729h-1.795
		C15.955,9.493,15.953,9.493,15.949,9.493z"/>
</g>
</svg>
