<?xml version="1.0" encoding="utf-8"?>
<!-- Generator: Adobe Illustrator 16.0.4, SVG Export Plug-In . SVG Version: 6.00 Build 0)  -->
<!DOCTYPE svg PUBLIC "-//W3C//DTD SVG 1.1//EN" "http://www.w3.org/Graphics/SVG/1.1/DTD/svg11.dtd">
<svg version="1.1" id="Layer_1" xmlns="http://www.w3.org/2000/svg" xmlns:xlink="http://www.w3.org/1999/xlink" x="0px" y="0px"
	 width="20px" height="20px" viewBox="0 0 20 20" enable-background="new 0 0 20 20" xml:space="preserve">
<g>
	<path fill="#FF0000" d="M10,20c5.541,0,10-4.459,10-10c0-5.542-4.459-10-10-10C4.458,0,0,4.458,0,10C0,15.541,4.458,20,10,20z"/>
</g>
<g id="tron">
	<path fill="#FFFFFF" d="M18.183,7.954c-0.727-0.671-1.733-1.697-2.552-2.424l-0.049-0.034c-0.08-0.065-0.172-0.116-0.269-0.15l0,0
		C13.337,4.978,4.145,3.259,3.965,3.281c-0.05,0.007-0.098,0.025-0.141,0.053L3.779,3.371c-0.057,0.058-0.1,0.128-0.126,0.204
		L3.641,3.606v0.172v0.027c1.035,2.882,5.121,12.321,5.926,14.538c0.049,0.149,0.141,0.436,0.313,0.45h0.039
		c0.092,0,0.485-0.52,0.485-0.52s7.019-8.511,7.73-9.417c0.091-0.112,0.173-0.232,0.241-0.359
		C18.41,8.295,18.337,8.089,18.183,7.954z M12.204,8.945l2.995-2.484l1.757,1.619L12.204,8.945z M11.041,8.783L5.882,4.556
		l8.345,1.539L11.041,8.783z M11.505,9.891l5.28-0.851l-6.036,7.272L11.505,9.891z M5.182,4.978l5.427,4.605l-0.786,6.732
		L5.182,4.978z"/>
</g>
</svg>
