<svg xmlns="http://www.w3.org/2000/svg" viewBox="0 0 25 16.674" fill="#AAA"><g transform="translate(0 -3.793)"><path d="M24.841,12.014C24.618,11.708,19.3,4.533,12.5,4.533S.382,11.708.159,12.013a.825.825,0,0,0,0,.973c.223.306,5.545,7.481,12.341,7.481s12.118-7.175,12.341-7.481A.824.824,0,0,0,24.841,12.014ZM12.5,18.819c-5.006,0-9.342-4.762-10.626-6.319C3.156,10.941,7.483,6.181,12.5,6.181s9.342,4.762,10.626,6.319C21.844,14.059,17.517,18.819,12.5,18.819Z"/><path d="M12.5,7.555A4.945,4.945,0,1,0,17.445,12.5,4.951,4.951,0,0,0,12.5,7.555Zm0,8.242a3.3,3.3,0,1,1,3.3-3.3A3.3,3.3,0,0,1,12.5,15.8Z"/><line x1="13" y2="13" transform="translate(5.5 5.5)" fill="none" stroke="#fff" stroke-width="4"/><line x1="15" y2="15" transform="translate(4.5 4.5)" fill="none" stroke="#AAA" stroke-width="2"/></g></svg>